<?xml version="1.0" encoding="utf-8"?>
<!-- Generator: Adobe Illustrator 16.0.0, SVG Export Plug-In . SVG Version: 6.00 Build 0)  -->
<!DOCTYPE svg PUBLIC "-//W3C//DTD SVG 1.1//EN" "http://www.w3.org/Graphics/SVG/1.1/DTD/svg11.dtd">
<svg version="1.1" id="Layer_1" xmlns="http://www.w3.org/2000/svg" xmlns:xlink="http://www.w3.org/1999/xlink" x="0px" y="0px"
	 width="81.657px" height="81.656px" viewBox="0 0 81.657 81.656" enable-background="new 0 0 81.657 81.656" xml:space="preserve">
<g>
	<circle fill="4B4C4E" stroke="#4B4C4E" stroke-width="3.243" stroke-miterlimit="10" cx="40.828" cy="40.829" r="39.207"/>
</g>
<g>
	<path fill="#FFFFFF" d="M19.966,31.196l6.275,19.974h-4.298l-1.404-4.729h-5.846l-1.404,4.729H9.105l6.534-19.974H19.966z
		 M19.565,43.117c0,0-0.659-2.092-1.089-4.012c-0.201-0.917-0.802-3.524-0.802-3.524s-0.573,2.35-0.946,3.84
		c-0.373,1.433-0.63,2.379-1.06,3.696H19.565z"/>
	<path fill="#FFFFFF" d="M31.542,49.078c0,1.404-1.146,2.551-2.522,2.551c-1.404,0-2.521-1.146-2.521-2.551
		c0-1.376,1.117-2.493,2.493-2.493C30.395,46.584,31.542,47.702,31.542,49.078z"/>
	<path fill="#FFFFFF" d="M41.14,31.253c2.436,0,3.697,0.373,4.9,1.433c1.118,0.975,1.633,2.121,1.633,3.554
		c0,1.347-0.458,2.493-1.347,3.324c-0.573,0.544-0.917,0.745-1.834,1.031c2.464,0.717,3.955,2.407,3.955,5.015
		c0,2.751-1.72,5.33-5.215,5.502c-0.631,0.029-1.462,0.058-2.551,0.058h-6.275V31.253H41.14z M38.361,39.22h2.378
		c0.945,0,1.375-0.086,1.719-0.258c0.544-0.287,1.032-1.232,1.032-2.035c0-0.831-0.43-1.719-1.146-2.006
		c-0.344-0.144-0.773-0.258-1.662-0.258h-2.321V39.22z M38.418,47.903h2.608c0.831,0,1.433-0.115,1.862-0.459
		c0.602-0.458,1.032-1.375,1.032-2.321c0-1.146-0.573-2.178-1.461-2.436c-0.487-0.143-0.802-0.172-1.547-0.172h-2.493V47.903z"/>
	<path fill="#FFFFFF" d="M55.066,49.078c0,1.404-1.146,2.551-2.522,2.551c-1.404,0-2.521-1.146-2.521-2.551
		c0-1.376,1.117-2.493,2.493-2.493C53.92,46.584,55.066,47.702,55.066,49.078z"/>
	<path fill="#FFFFFF" d="M68.763,35.123c-1.003-0.745-2.063-1.118-3.181-1.118c-1.347,0-2.665,0.659-3.381,1.72
		c-0.774,1.146-1.118,2.808-1.118,5.129c0,2.723,0.229,4.241,0.831,5.33c0.803,1.462,2.121,2.235,3.84,2.235
		c1.175,0,2.235-0.344,3.41-1.289l1.834,2.521c-1.576,1.289-3.267,1.862-5.531,1.862c-2.75,0-4.871-0.889-6.504-2.751
		c-1.605-1.806-2.408-4.212-2.408-7.135c0-2.493,0.431-4.471,1.348-6.19c1.547-2.894,4.413-4.613,7.623-4.613
		c1.977,0,3.954,0.631,5.043,1.576L68.763,35.123z"/>
</g>
</svg>
