<?xml version="1.0" encoding="utf-8"?>
<!-- Generator: Adobe Illustrator 16.0.0, SVG Export Plug-In . SVG Version: 6.00 Build 0)  -->
<!DOCTYPE svg PUBLIC "-//W3C//DTD SVG 1.1//EN" "http://www.w3.org/Graphics/SVG/1.1/DTD/svg11.dtd">
<svg version="1.1" id="Layer_1" xmlns="http://www.w3.org/2000/svg" xmlns:xlink="http://www.w3.org/1999/xlink" x="0px" y="0px"
	 width="81.657px" height="81.656px" viewBox="0 0 81.657 81.656" enable-background="new 0 0 81.657 81.656" xml:space="preserve">
<circle fill="#4B4C4E" stroke="#4B4C4E" stroke-width="3.2429" stroke-miterlimit="10" cx="40.828" cy="40.829" r="39.207"/>
<g>

		<path fill="#FFFFFF" d="M42.713,24.233l10.513,33.459h-7.201l-2.352-7.921h-9.793l-2.353,7.921H24.52l10.945-33.459H42.713z
			 M42.042,44.203c0,0-1.104-3.504-1.824-6.721c-0.336-1.536-1.344-5.904-1.344-5.904s-0.96,3.937-1.584,6.433
			c-0.624,2.4-1.056,3.984-1.776,6.192H42.042z"/>
	<polyline fill="#FFFFFF" points="45.277,35.303 55.277,25.303 51.277,21.303 67.277,20.444 
		64.277,35.303 60.277,31.303 48.277,44.303 	"/>
</g>
</svg>
