<?xml version="1.0" encoding="utf-8"?>
<!-- Generator: Adobe Illustrator 16.0.0, SVG Export Plug-In . SVG Version: 6.00 Build 0)  -->
<!DOCTYPE svg PUBLIC "-//W3C//DTD SVG 1.1//EN" "http://www.w3.org/Graphics/SVG/1.1/DTD/svg11.dtd">
<svg version="1.1" id="Layer_1" xmlns="http://www.w3.org/2000/svg" xmlns:xlink="http://www.w3.org/1999/xlink" x="0px" y="0px"
	 width="67.995px" height="67.995px" viewBox="0 0 67.995 67.995" enable-background="new 0 0 67.995 67.995" xml:space="preserve">
<path fill="#4B4C4E" stroke="#E6E6E6" stroke-miterlimit="10" d="M67.495,62.808c0,2.576-2.11,4.686-4.688,4.686L5.185,67.495
	c-2.578,0-4.685-2.107-4.685-4.687V5.188c0-2.579,2.106-4.687,4.685-4.687L62.808,0.5c2.577,0,4.688,2.108,4.688,4.685V62.808z"/>
<path fill="#E6E6E6" stroke="#010101" stroke-miterlimit="10" d="M67.495,62.808c0,2.576-2.11,4.686-4.688,4.686L5.185,67.495
	c-2.578,0-4.685-2.107-4.685-4.687V5.188c0-2.579,2.106-4.687,4.685-4.687L62.808,0.5c2.577,0,4.688,2.108,4.688,4.685V62.808z"/>
<g>
	<path fill="#010101" d="M20.062,15.905h3.66l9.244,13.683l9.564-13.683h3.478L34.843,31.83l11.807,16.749h-3.753l-9.93-14.415
		L22.899,48.578h-3.523l11.761-16.84L20.062,15.905z"/>
</g></svg>
