<?xml version="1.0" encoding="utf-8"?>
<!-- Generator: Adobe Illustrator 16.0.0, SVG Export Plug-In . SVG Version: 6.00 Build 0)  -->
<!DOCTYPE svg PUBLIC "-//W3C//DTD SVG 1.1//EN" "http://www.w3.org/Graphics/SVG/1.1/DTD/svg11.dtd">
<svg version="1.1" id="Layer_1" xmlns="http://www.w3.org/2000/svg" xmlns:xlink="http://www.w3.org/1999/xlink" x="0px" y="0px"
	 width="81.657px" height="81.656px" viewBox="0 0 81.657 81.656" enable-background="new 0 0 81.657 81.656" xml:space="preserve">
<g>
	<circle fill="#4B4C4E" stroke="#4B4C4E" stroke-width="3.2429" stroke-miterlimit="10" cx="40.829" cy="40.829" r="39.207"/>
	<g>
		<g>
			<path fill="#FFFFFF" d="M34.395,19.931c-5.865-1.405-11.057,9.731-12.879,13.731c-3.912,8.607-4.662,18.058-5.553,27.346
				c-0.48,5.006,6.719,0.252,8.506-0.523c3.834-1.658,8.398-3.446,10.939-6.938c3.784-5.201,1.957-14.835,1.965-20.96
				C37.381,29.293,39.209,21.086,34.395,19.931z"/>
			<path fill="#FFFFFF" d="M49.244,56.869c0.628,0.415,1.286,0.798,1.958,1.155c1.771,0.941,3.645,1.714,5.369,2.461
				c1.785,0.775,8.984,5.529,8.506,0.523c-0.893-9.288-1.643-18.738-5.556-27.346c-1.82-4-7.015-15.137-12.878-13.731
				c-4.813,1.155-2.986,9.362-2.979,12.655c0.007,5.572-1.504,14.048,1.072,19.447c0.257,0.536,0.553,1.043,0.895,1.513
				c0.264,0.361,0.553,0.702,0.857,1.028"/>
			<path fill="#FFFFFF" d="M39.198,12.486c0-2.027,0.674-3.689,1.497-3.689c0.825,0,1.5,1.662,1.5,3.689v17.991
				c0,2.028,0.676,4.312,1.498,5.072c0.825,0.762,1.499,2.111,1.499,3s-0.777,0.99-1.729,0.23c-0.952-0.762-3.027-0.5-4.613,0.578
				c-1.586,1.076-2.936,1.076-2.998,0c-0.064-1.078,0.663-2.688,1.614-3.574c0.951-0.891,1.731-3.278,1.731-5.307V12.486z"/>
		</g>
	</g>
</g>
</svg>
