<?xml version="1.0" encoding="utf-8"?>
<!-- Generator: Adobe Illustrator 16.0.0, SVG Export Plug-In . SVG Version: 6.00 Build 0)  -->
<!DOCTYPE svg PUBLIC "-//W3C//DTD SVG 1.1//EN" "http://www.w3.org/Graphics/SVG/1.1/DTD/svg11.dtd">
<svg version="1.1" id="Layer_1" xmlns="http://www.w3.org/2000/svg" xmlns:xlink="http://www.w3.org/1999/xlink" x="0px" y="0px"
	 width="81.656px" height="81.656px" viewBox="0 0 81.656 81.656" enable-background="new 0 0 81.656 81.656" xml:space="preserve">
<g>
	<circle fill="4B4E4E" stroke="#4B4E4E" stroke-width="3.243" stroke-miterlimit="10" cx="40.828" cy="40.829" r="39.207"/>
	<path fill="#FFFFFF" d="M52.26,16.792L39.613,27.307L20.256,56.314l10.558,8.551l24.308-25l7.696-14.523
		c0,0-1.715-3.029-3.818-5.134C57,18.208,52.26,16.792,52.26,16.792"/>
	<polygon fill="#5A5A5D" points="53.298,21.53 58.298,25.53 55.298,32.53 47.298,25.53 	"/>
	
		<line fill="none" stroke="#4B4E4E" stroke-width="3.243" stroke-miterlimit="10" x1="39.285" y1="26.619" x2="55.715" y2="40.798"/>
	<path fill="#FFFFFF" d="M22.454,64.443c3.047,2.468,6.897,2.458,8.546,0.422c1.649-2.037,0.472-5.328-2.575-7.796
		c-3.047-2.468-6.521-2.897-8.169-0.861C18.607,58.244,19.407,61.976,22.454,64.443"/>
	<line fill="none" stroke="#5A5A5D" x1="36" y1="34.208" x2="49" y2="45.208"/>
</g>
</svg>
