<?xml version="1.0" encoding="utf-8"?>
<!-- Generator: Adobe Illustrator 16.0.0, SVG Export Plug-In . SVG Version: 6.00 Build 0)  -->
<!DOCTYPE svg PUBLIC "-//W3C//DTD SVG 1.1//EN" "http://www.w3.org/Graphics/SVG/1.1/DTD/svg11.dtd">
<svg version="1.1" id="Layer_1" xmlns="http://www.w3.org/2000/svg" xmlns:xlink="http://www.w3.org/1999/xlink" x="0px" y="0px"
	 width="81.656px" height="81.657px" viewBox="0 0 81.656 81.657" enable-background="new 0 0 81.656 81.657" xml:space="preserve">
<g>
	<circle fill="#4B4C4E" stroke="#4B4C4E" stroke-width="3.2429" stroke-miterlimit="10" cx="40.828" cy="40.829" r="39.207"/>
	<g>
		<path fill="#FFFFFF" d="M29.134,16.724c8.261,0,10.78,0.84,13.511,2.38c4.551,2.521,7.001,7.001,7.001,12.602
			c0,6.44-3.08,11.621-8.401,14.142c-2.24,1.05-4.34,1.609-9.73,1.609h-5.391v17.922h-9.801V16.724H29.134z M26.124,39.476h5.11
			c3.99,0,5.181-0.49,6.511-2.52c0.84-1.331,1.19-2.73,1.19-5.041c0-4.551-2.45-7.281-6.581-7.281h-6.23V39.476z"/>
		<path fill="#FFFFFF" d="M64.833,16.724v48.654H54.613V16.724H64.833z"/>
	</g>
</g>
</svg>
