<?xml version="1.0" encoding="utf-8"?>
<!-- Generator: Adobe Illustrator 16.0.0, SVG Export Plug-In . SVG Version: 6.00 Build 0)  -->
<!DOCTYPE svg PUBLIC "-//W3C//DTD SVG 1.1//EN" "http://www.w3.org/Graphics/SVG/1.1/DTD/svg11.dtd">
<svg version="1.1" id="Layer_1" xmlns="http://www.w3.org/2000/svg" xmlns:xlink="http://www.w3.org/1999/xlink" x="0px" y="0px"
	 width="81.657px" height="81.657px" viewBox="0 0 81.657 81.657" enable-background="new 0 0 81.657 81.657" xml:space="preserve">
<g>
	<circle fill="#4B4C4E" stroke="#4B4C4E" stroke-width="3.2429" stroke-miterlimit="10" cx="40.829" cy="40.829" r="39.207"/>
	<path fill="#FFFFFF" d="M30.83,26.434c-0.274,0.83-0.148,2.276,0.779,2.35c0.927,0.072,3.527,0.424,4.401,1.23
		c0.875,0.807,1.808,2.719,0.646,4.775c-1.165,2.057-4.178,4.043-6.391,2.395s-1.072-3.512-2.196-4.527
		c-1.124-1.014-2.376-0.445-3.176,0.508c-0.8,0.951-7.091,8.164-7.091,8.164s5.504,5.252,6.599,6.173
		c1.097,0.921,1.129,2.126-0.132,2.798c-1.26,0.674-2.81,0.621-3.562,1.516c-0.75,0.893-0.707,4.469,1.358,6.135
		c2.067,1.668,4.96,2.02,6.161,0.672c1.202-1.348,0.399-2.37,1.038-3.707c0.638-1.334,1.639-1.949,2.892-0.967
		c1.253,0.984,9.483,7.693,9.483,7.693s9.361-9.422,10.24-10.717c0.877-1.295-0.028-3.385-1.757-3.578
		c-1.73-0.193-3.265-1.203-3.297-3.334c-0.032-2.125,1.794-3.465,3.952-4.031c2.159-0.568,2.857,1.352,3.512,2.74
		c0.653,1.391,2.352,2.119,3.367,1.078c1.014-1.037,4.805-6.048,4.805-6.048s-2.394-2.155-3.414-2.942
		c-1.019-0.787-4.732-3.205-3.336-5.115c1.395-1.912,3.071-0.152,4.528-2.639c1.461-2.486-0.306-3.971-3.277-6.188
		c-2.971-2.217-4.697-0.164-5.079,1.125c-0.382,1.291-0.368,2.771-0.93,3.773c-0.559,1-1.698,0.604-2.451,0.25
		c-0.756-0.354-9.645-8.371-9.645-8.371S31.102,25.608,30.83,26.434z"/>
</g>
</svg>
