<?xml version="1.0" encoding="utf-8"?>
<!-- Generator: Adobe Illustrator 16.0.0, SVG Export Plug-In . SVG Version: 6.00 Build 0)  -->
<!DOCTYPE svg PUBLIC "-//W3C//DTD SVG 1.1//EN" "http://www.w3.org/Graphics/SVG/1.1/DTD/svg11.dtd">
<svg version="1.1" id="Layer_1" xmlns="http://www.w3.org/2000/svg" xmlns:xlink="http://www.w3.org/1999/xlink" x="0px" y="0px"
	 width="81.657px" height="81.656px" viewBox="0 0 81.657 81.656" enable-background="new 0 0 81.657 81.656" xml:space="preserve">
<g>
	<circle fill="#4B4E4E" stroke="#4B4E4E" stroke-width="3.243" stroke-miterlimit="10" cx="40.828" cy="40.829" r="39.207"/>
</g>
<g>
	<path fill="#FFFFFF" d="M31.581,52.813c0.767,0.46,1.686,0.89,2.636,0.89c0.92,0,1.901-0.153,1.901-0.153l-1.134,2.789
		c0,0-0.613,0.368-1.901,0.368c-1.655,0-3.126-0.981-3.924-1.502c-1.011-0.675-2.667-1.625-4.322-2.146
		c-3.188,0-5.272-0.889-6.897-3.004c-1.625-2.085-2.452-4.782-2.452-7.909c0-4.598,1.747-8.308,4.813-9.963
		c1.257-0.674,2.82-1.042,4.414-1.042c5.671,0,9.166,4.139,9.166,10.821c0,4.629-1.656,8.093-4.2,9.778
		C30.262,51.955,31.09,52.506,31.581,52.813z M21.342,36.321c-0.736,1.38-1.073,3.249-1.073,5.824c0,3.679,0.613,5.978,1.9,6.897
		c0.674,0.49,1.533,0.736,2.544,0.736c2.974,0,4.23-2.269,4.23-7.695c0-2.176-0.184-3.739-0.552-4.935
		c-0.337-1.073-1.472-2.698-3.74-2.698C23.212,34.451,21.955,35.187,21.342,36.321z"/>
	<path fill="#FFFFFF" d="M54.325,41.961c0,4.812-1.655,8.43-4.751,10.116c-1.287,0.705-2.483,0.98-4.261,0.98
		c-3.219,0-5.303-0.889-6.928-3.004c-1.625-2.085-2.452-4.782-2.452-7.909c0-4.598,1.747-8.276,4.812-9.963
		c1.257-0.674,2.82-1.042,4.415-1.042C50.83,31.14,54.325,35.279,54.325,41.961z M41.787,36.321
		c-0.736,1.38-1.073,3.249-1.073,5.824c0,3.679,0.613,5.978,1.9,6.897c0.674,0.49,1.533,0.736,2.544,0.736
		c2.974,0,4.23-2.269,4.23-7.695c0-2.176-0.184-3.739-0.552-4.935c-0.337-1.073-1.472-2.698-3.74-2.698
		C43.657,34.451,42.4,35.187,41.787,36.321z"/>
	<path fill="#FFFFFF" d="M62.202,31.417v17.749h7.634l-0.768,3.556h-11.25V31.417H62.202z"/>
</g>
</svg>
