<?xml version="1.0" encoding="utf-8"?>
<!-- Generator: Adobe Illustrator 16.0.0, SVG Export Plug-In . SVG Version: 6.00 Build 0)  -->
<!DOCTYPE svg PUBLIC "-//W3C//DTD SVG 1.1//EN" "http://www.w3.org/Graphics/SVG/1.1/DTD/svg11.dtd">
<svg version="1.1" id="Layer_1" xmlns="http://www.w3.org/2000/svg" xmlns:xlink="http://www.w3.org/1999/xlink" x="0px" y="0px"
	 width="81.655px" height="81.656px" viewBox="0 0 81.655 81.656" enable-background="new 0 0 81.655 81.656" xml:space="preserve">
<g>
	<circle fill="#4B4C4E" stroke="#4B4C4E" stroke-width="3.2429" stroke-miterlimit="10" cx="40.828" cy="40.829" r="39.206"/>
	<g>
		<path fill="#FFFFFF" d="M43.423,15.201c8.856,0,14.689,5.905,14.689,14.689c0,7.489-4.969,13.681-11.161,13.826
			c1.008,0.791,1.44,1.224,2.088,2.088c2.881,3.6,12.025,19.441,12.025,19.441H49.184c-1.944-3.312-2.736-4.681-4.681-8.209
			c-4.969-9-6.48-11.449-8.281-12.24c-0.504-0.217-0.936-0.36-1.584-0.433v20.882h-9.864V15.201H43.423z M34.638,36.803h3.385
			c4.32,0,6.192-0.432,7.561-1.656c1.224-1.152,1.944-2.952,1.944-5.041c0-3.096-1.225-5.256-3.601-6.121
			c-1.152-0.432-3.24-0.72-5.688-0.72h-3.601V36.803z"/>
	</g>
</g>
</svg>
