<?xml version="1.0" encoding="utf-8"?>
<!-- Generator: Adobe Illustrator 16.0.0, SVG Export Plug-In . SVG Version: 6.00 Build 0)  -->
<!DOCTYPE svg PUBLIC "-//W3C//DTD SVG 1.1//EN" "http://www.w3.org/Graphics/SVG/1.1/DTD/svg11.dtd">
<svg version="1.1" id="Layer_1" xmlns="http://www.w3.org/2000/svg" xmlns:xlink="http://www.w3.org/1999/xlink" x="0px" y="0px"
	 width="81.657px" height="81.656px" viewBox="0 0 81.657 81.656" enable-background="new 0 0 81.657 81.656" xml:space="preserve">
<g>
	<circle clip-path="url(#SVGID_2_)" fill="#4B4E4E" stroke="#4B4E4E" stroke-width="3.243" stroke-miterlimit="10" cx="40.828" cy="40.829" r="39.207"/>

	<path fill="#FFFFFF" d="M35.117,23.169c-5.578,0-10.32,4.359-10.806,9.925
		c-0.528,5.975,3.899,11.258,9.882,11.777c0.315,0.028,0.627,0.042,0.95,0.042c5.588,0,10.34-4.358,10.825-9.925
		C46.49,29.016,41.802,23.169,35.117,23.169 M65.427,62.72c-0.129,1.553-0.86,2.951-2.048,3.946
		c-1.051,0.872-2.379,1.358-3.721,1.358c-0.196,0-2.849-0.024-4.457-2.082L40.802,50.188c-1.843,0.656-4.368,1.196-7.168,0.927
		c-4.549-0.441-8.681-2.55-11.634-6.055c-2.937-3.507-4.333-7.946-3.932-12.492c0.762-8.763,8.253-15.635,17.049-15.635
		c5.259,0,10.174,2.61,13.12,6.115c2.938,3.513,4.332,7.944,3.947,12.509c-0.24,2.591-1.031,5.035-2.375,7.278l14.268,15.631
		C65.093,59.673,65.568,61.183,65.427,62.72"/>
</g>
</svg>
