<?xml version="1.0" encoding="utf-8"?>
<!-- Generator: Adobe Illustrator 16.0.0, SVG Export Plug-In . SVG Version: 6.00 Build 0)  -->
<!DOCTYPE svg PUBLIC "-//W3C//DTD SVG 1.0//EN" "http://www.w3.org/TR/2001/REC-SVG-20010904/DTD/svg10.dtd">
<svg version="1.0" id="Layer_1" xmlns="http://www.w3.org/2000/svg" xmlns:xlink="http://www.w3.org/1999/xlink" x="0px" y="0px"
	 width="81.656px" height="81.655px" viewBox="0 0 81.656 81.655" enable-background="new 0 0 81.656 81.655" xml:space="preserve">
<g>
	<circle fill="#4B4C4E" stroke="#4B4C4E" stroke-width="3.2429" stroke-miterlimit="10" cx="40.828" cy="40.829" r="39.207"/>
	<path id="path3126_27_" fill="#FFFFFF" d="M35.553,27.916c-2.1,0.122,0.259,2.842-3.991,2.929
		c-5.036,0.103-0.964-3.854-5.802-2.452c-4.838,1.403,0.727,2.569-3.584,5.177c-4.309,2.607-2.764-2.871-6.252,0.762
		c-3.488,3.635,1.912,1.867-0.518,6.281c-2.43,4.413-3.809-1.104-5.014,3.786c-1.203,4.893,2.582,0.658,2.685,5.693
		c0.102,5.037-3.854,0.967-2.452,5.805c1.401,4.838,2.569-0.729,5.176,3.582c2.607,4.309-2.872,2.764,0.764,6.252
		c3.634,3.488,1.867-1.912,6.279,0.518s-1.092,3.822,3.801,5.025c4.891,1.205,0.645-2.594,5.678-2.697
		c5.039-0.102,0.967,3.869,5.805,2.467c4.838-1.404-0.727-2.57,3.583-5.176c4.31-2.607,2.763,2.857,6.252-0.777
		c3.489-3.633-1.91-1.867,0.519-6.279c2.429-4.414,3.822,1.104,5.025-3.787c1.205-4.891-2.594-0.658-2.696-5.693
		c-0.103-5.037,3.867-0.965,2.464-5.803c-1.4-4.838-2.568,0.727-5.174-3.583c-2.609-4.311,2.857-2.765-0.777-6.253
		c-3.633-3.488-1.867,1.911-6.279-0.518s1.104-3.821-3.787-5.026C36.491,27.959,35.942,27.893,35.553,27.916L35.553,27.916z
		 M31.943,38.813c6.02,0,10.897,4.879,10.897,10.897c0,6.02-4.878,10.898-10.897,10.898c-6.019,0-10.896-4.879-10.896-10.898
		C21.047,43.692,25.924,38.813,31.943,38.813z"/>
	<path id="path3126_26_"  fill="#FFFFFF" d="M63.217,15.092c-1.031-0.221-0.25,1.412-2.318,0.883
		c-2.453-0.625,0.041-1.995-2.486-1.965s0.012,1.342-2.422,2.025c-2.429,0.684-0.957-1.761-3.125-0.47
		c-2.171,1.292,0.678,1.161-1.083,2.972c-1.76,1.811-1.698-1.045-2.928,1.16c-1.231,2.207,1.162,0.665,0.547,3.117
		c-0.618,2.452-1.995-0.049-1.956,2.481s1.34-0.008,2.032,2.429c0.694,2.437-1.756,0.953-0.456,3.13
		c1.297,2.177,1.155-0.675,2.972,1.093c1.813,1.77-1.034,1.705,1.174,2.943c2.212,1.24,0.655-1.17,3.106-0.543
		c2.454,0.626-0.043,2.002,2.485,1.973c2.528-0.031-0.012-1.342,2.42-2.026c2.432-0.683,0.959,1.755,3.13,0.464
		c2.169-1.292-0.678-1.16,1.082-2.973c1.76-1.811,1.705,1.049,2.935-1.158s-1.17-0.667-0.554-3.119
		c0.615-2.453,2.002,0.052,1.963-2.479c-0.04-2.531-1.342,0.008-2.033-2.43c-0.692-2.437,1.75-0.955,0.449-3.132
		c-1.296-2.177-1.155,0.676-2.97-1.093c-1.817-1.768,1.038-1.702-1.169-2.941C63.667,15.241,63.411,15.135,63.217,15.092
		L63.217,15.092z M60.027,19.885c2.916,0.809,4.635,3.824,3.837,6.738c-0.795,2.914-3.803,4.623-6.719,3.814
		c-2.914-0.807-4.631-3.824-3.835-6.738S57.114,19.079,60.027,19.885z"/>
</g>
</svg>
