<?xml version="1.0" encoding="utf-8"?>
<!-- Generator: Adobe Illustrator 16.0.0, SVG Export Plug-In . SVG Version: 6.00 Build 0)  -->
<!DOCTYPE svg PUBLIC "-//W3C//DTD SVG 1.0//EN" "http://www.w3.org/TR/2001/REC-SVG-20010904/DTD/svg10.dtd">
<svg version="1.0" id="Layer_1" xmlns="http://www.w3.org/2000/svg" xmlns:xlink="http://www.w3.org/1999/xlink" x="0px" y="0px"
	 width="81.656px" height="81.656px" viewBox="0 0 81.656 81.656" enable-background="new 0 0 81.656 81.656" xml:space="preserve">
<g>
	<circle fill="#4B4C4E" stroke="#4B4C4E" stroke-width="3.2429" stroke-miterlimit="10" cx="40.828" cy="40.829" r="39.207"/>
	<g>
		<path fill="#FFFFFF" d="M52.963,26.063c-4.537-2.736-7.921-3.816-11.665-3.816c-4.104,0-6.984,2.376-6.984,5.761
			c0,2.592,1.368,3.888,5.544,5.04l6.049,1.656c8.209,2.232,12.673,7.488,12.673,14.905c0,10.153-8.209,16.85-20.666,16.85
			c-5.688,0-12.024-1.656-17.065-4.536l3.744-7.849c4.681,2.448,8.713,4.032,13.754,4.032c5.76,0,8.784-2.377,8.784-6.841
			c0-3.24-2.088-5.257-6.553-6.48l-5.544-1.513c-4.969-1.368-8.064-3.312-9.865-6.336c-1.368-2.232-2.088-4.824-2.088-7.633
			c0-9.145,7.345-15.481,17.93-15.481c6.12,0,12.312,1.872,16.705,5.041L52.963,26.063z"/>
	</g>
</g>

</svg>
